# xmcd CD database file
#
# Track frame offsets:
#	150
#	20860
#	46843
#	58206
#	77262
#	98685
#
# Disc length: 1397 seconds
#
# Revision: 1
# Processed by: cddbd v1.5.2PL0 Copyright (c) Steve Scherf et al.
# Submitted via: CDex 1.70beta2
#
DISCID=41057306
DTITLE=Aurelia - Mr. Lovely and More
DYEAR=2013
DGENRE=Jazz
TTITLE0=If I Wrote
TTITLE1=Like a Feather
TTITLE2=I Would Love
TTITLE3=Mr. Lovely
TTITLE4=One of These Days
TTITLE5=What's in a Name
EXTD=YEAR: 2013
EXTT0=
EXTT1=
EXTT2=
EXTT3=
EXTT4=
EXTT5=
PLAYORDER=
